<?xml version="1.0" encoding="UTF-8"?>
<svg version="1.1" xmlns="http://www.w3.org/2000/svg" width="2560" height="487">
<path d="M0 0 C-3.15827913 2.54184392 -6.44628235 4.30590631 -10.0625 6.125 C-28.9867405 16.25466065 -40.91519591 32.51004254 -47.375 52.70556641 C-52.6662633 72.13029004 -49.47186188 92.76869383 -39.75 110.25 C-28.02468104 129.03572608 -11.64585763 140.70063328 9.82421875 146.2890625 C13.90921246 147.20353834 17.81838326 147.83389087 22 148 C22.92167969 148.03996094 23.84335937 148.07992187 24.79296875 148.12109375 C44.0390558 148.54435828 61.68111102 142.5281815 75.76953125 129.24609375 C79.58506842 125.40382777 82.99631724 121.50552413 86 117 C86.66 117 87.32 117 88 117 C89.81128067 126.68781146 90.3642404 136.17102432 90.3125 146 C90.30976578 147.08199677 90.30976578 147.08199677 90.30697632 148.18585205 C90.25557501 160.31689601 89.51495646 172.10841455 87 184 C86.83371094 184.79470703 86.66742188 185.58941406 86.49609375 186.40820312 C81.46702961 209.48601969 71.05952557 231.09152193 57 250 C56.34902344 250.8765625 55.69804687 251.753125 55.02734375 252.65625 C44.03288382 266.72237986 30.95816887 279.24984223 16 289 C15.07622559 289.60231445 15.07622559 289.60231445 14.13378906 290.21679688 C-23.2905978 314.25724112 -68.36417034 322.5104541 -112 314 C-143.84084705 306.81797876 -170.91706337 291.72155261 -195 270 C-195.74894531 269.32453125 -196.49789062 268.6490625 -197.26953125 267.953125 C-228.27163243 238.40326074 -244.4112593 195.09240331 -245.93017578 152.99951172 C-247.00359874 106.88736322 -229.1962333 64.42372105 -197.88500977 30.95703125 C-192.95407791 25.81296754 -187.70693712 21.27240647 -182 17 C-181.47857422 16.60361328 -180.95714844 16.20722656 -180.41992188 15.79882812 C-130.70317886 -21.8262395 -55.24704929 -33.43116594 0 0 Z " fill="#F47420" transform="translate(362,135)"/>
<path d="M0 0 C0.57556641 0.47405273 1.15113281 0.94810547 1.74414062 1.43652344 C14.39010493 11.87258108 25.91305966 23.04146223 36 36 C36.78761719 36.97066406 37.57523437 37.94132812 38.38671875 38.94140625 C63.9666831 71.02679325 79.14414905 109.80315003 86 150 C86.18006592 151.04897461 86.18006592 151.04897461 86.36376953 152.11914062 C88.92204869 167.90345617 88.19073305 184.0635197 88 200 C87.67 200 87.34 200 87 200 C86.91024902 199.33282959 86.82049805 198.66565918 86.72802734 197.97827148 C81.74487293 161.66578326 71.55601048 127.11992937 50 97 C48.97132813 95.55947266 48.97132813 95.55947266 47.921875 94.08984375 C14.48043888 48.43867466 -34.69011125 18.38149324 -90.55615234 9.25048828 C-143.97498738 1.30950997 -200.626554 14.64626617 -244.25878906 46.69482422 C-248.63969743 49.97866271 -252.86199693 53.41630887 -257 57 C-258.24136719 58.07507813 -258.24136719 58.07507813 -259.5078125 59.171875 C-270.55305828 68.93601077 -280.24771928 79.17116 -289 91 C-289.39960938 91.53882813 -289.79921875 92.07765625 -290.2109375 92.6328125 C-322.797803 137.02968295 -335.79032932 192.47499091 -328.0390625 246.828125 C-321.08233189 290.50477561 -300.81990072 329.7448213 -270.36523438 361.57177734 C-269.14565415 362.84762576 -267.9390991 364.13589562 -266.734375 365.42578125 C-260.40855672 372.02103253 -253.29112121 377.52619184 -246 383 C-245.16726562 383.62777344 -244.33453125 384.25554687 -243.4765625 384.90234375 C-213.64598101 406.53715114 -177.79792019 420.09747865 -141.11279297 423.31811523 C-139.40112429 423.48050431 -137.69826283 423.73151679 -136 424 C-135.67 424.66 -135.34 425.32 -135 426 C-190.3919157 426.60870237 -244.47921341 415.23782589 -290 382 C-290.54769043 381.60103516 -291.09538086 381.20207031 -291.65966797 380.79101562 C-308.91351098 368.09970794 -324.79626036 353.90922963 -338 337 C-338.77730469 336.03964844 -339.55460937 335.07929688 -340.35546875 334.08984375 C-347.6777722 324.88166882 -353.95705057 315.0861367 -360 305 C-360.56847656 304.05350586 -360.56847656 304.05350586 -361.1484375 303.08789062 C-391.29516564 252.03111985 -398.46907822 186.14337985 -384.26123047 129.03027344 C-379.03542973 109.0946927 -371.73495614 90.15971531 -362 72 C-361.68595215 71.41057617 -361.3719043 70.82115234 -361.04833984 70.21386719 C-350.84918191 51.25220122 -337.79389854 34.57993054 -323 19 C-322.49452637 18.46584473 -321.98905273 17.93168945 -321.46826172 17.38134766 C-313.56120101 9.08472799 -305.2070678 1.81598617 -296 -5 C-295.42636719 -5.42909668 -294.85273438 -5.85819336 -294.26171875 -6.30029297 C-260.86128013 -31.19040538 -222.1769899 -46.19853918 -181 -52 C-179.89229248 -52.15686279 -179.89229248 -52.15686279 -178.76220703 -52.31689453 C-115.45295756 -59.92925643 -48.91766566 -40.84082822 0 0 Z " fill="#F47420" transform="translate(396,58)"/>
<path d="M0 0 C17.16 0 34.32 0 52 0 C52.33 26.73 52.66 53.46 53 81 C56.96 79.68 60.92 78.36 65 77 C73.60501336 75.0156814 81.8098664 74.64841593 90.625 74.6875 C91.28640991 74.68965515 91.94781982 74.6918103 92.62927246 74.69403076 C103.05959992 74.7484964 112.91460009 75.22632812 123 78 C123.7307373 78.19867676 124.46147461 78.39735352 125.21435547 78.60205078 C140.62867124 82.94617397 153.61374552 89.47440324 165 101 C165.69609375 101.67417969 166.3921875 102.34835938 167.109375 103.04296875 C183.60723051 120.08435826 187.36245805 144.15812823 187.22705078 166.98193359 C187.22734283 168.30070999 187.22763489 169.61948639 187.22793579 170.97822571 C187.22850249 174.5455214 187.21686082 178.11267869 187.20278788 181.67994261 C187.19016474 185.42615754 187.18910099 189.1723767 187.18673706 192.91860962 C187.18055595 199.99074218 187.16419146 207.06281186 187.14403808 214.1349169 C187.12157329 222.1955388 187.11065922 230.25616393 187.10064721 238.31680942 C187.07982167 254.87791541 187.04318833 271.43893493 187 288 C169.84 288 152.68 288 135 288 C134.98541748 283.83640869 134.97083496 279.67281738 134.95581055 275.38305664 C134.90545521 261.62071494 134.83900779 247.85849031 134.76428509 234.09626102 C134.71937672 225.75290759 134.67995069 217.40959637 134.65356445 209.06616211 C134.63054413 201.79148694 134.59710123 194.51694592 134.55129844 187.24237722 C134.52742044 183.39283271 134.50865624 179.54342059 134.50238609 175.69380379 C134.49631054 172.06497105 134.47622251 168.43647685 134.44572449 164.80776978 C134.43283886 162.85218757 134.43450742 160.89652611 134.4367218 158.94090271 C134.33227877 149.09532219 133.09672143 141.07983551 126.12109375 133.78515625 C113.31034603 123.00336673 92.90936393 122.8287019 77 124 C72.26802503 124.54504902 67.59344275 125.34303928 62.91796875 126.24609375 C59.29838703 126.94258355 55.6489369 127.4787233 52 128 C52 180.8 52 233.6 52 288 C34.84 288 17.68 288 0 288 C0 192.96 0 97.92 0 0 Z " fill="#F47520" transform="translate(1579,90)"/>
<path d="M0 0 C0.804375 0.72058594 1.60875 1.44117188 2.4375 2.18359375 C3.283125 2.93511719 4.12875 3.68664062 5 4.4609375 C22.50062107 20.92112531 31.28555501 46.46072946 32.5436554 70.1854248 C32.60048785 72.25429664 32.62775603 74.32101715 32.640625 76.390625 C32.64768463 77.14946991 32.65474426 77.90831482 32.66201782 78.69015503 C32.90858545 112.97006261 29.10706508 144.49134153 4.359375 170.35546875 C-17.01151378 190.77654025 -46.08992587 194.03966437 -74.22265625 193.46875 C-98.56406443 192.73057 -122.80670347 184.73032075 -139.89453125 166.7265625 C-163.51881565 139.23868133 -166.91686628 102.96500694 -164.33544922 68.11865234 C-162.16193927 46.39505292 -155.53128317 24.54275796 -140.5625 8.18359375 C-139.97210937 7.50167969 -139.38171875 6.81976563 -138.7734375 6.1171875 C-106.86008443 -28.58009637 -35.26084173 -29.89260461 0 0 Z M-97.5625 32.1171875 C-110.36353031 47.15288042 -110.79531593 67.97291603 -110.8125 86.68359375 C-110.81350708 87.44237823 -110.81451416 88.20116272 -110.81555176 88.98294067 C-110.79834507 108.12259969 -109.49074112 128.05373621 -95.97265625 142.93359375 C-85.53815471 152.75430108 -71.78632538 152.63241904 -58.33984375 152.4609375 C-48.01866428 152.12552003 -39.17736182 149.41421942 -31.5625 142.18359375 C-31.02109375 141.67054688 -30.4796875 141.1575 -29.921875 140.62890625 C-19.16973104 129.27942096 -16.44523683 111.79911637 -16.359375 96.75 C-16.35367493 95.9544017 -16.34797485 95.15880341 -16.34210205 94.33909607 C-16.33269934 92.65910144 -16.326137 90.97908875 -16.32226562 89.29907227 C-16.31264622 86.78432014 -16.28161413 84.2704173 -16.25 81.75585938 C-16.13243066 63.89301875 -18.01419351 45.00686187 -30.5625 31.18359375 C-41.2326309 21.07504869 -54.78093975 20.64848512 -68.703125 20.9375 C-79.64585235 21.36145686 -89.55274916 24.37338542 -97.5625 32.1171875 Z " fill="#F47420" transform="translate(2319.5625,186.81640625)"/>
<path d="M0 0 C18.15 0 36.3 0 55 0 C56.38823975 4.17519287 57.77647949 8.35038574 59.20678711 12.65209961 C63.78217772 26.41133753 68.36081697 40.16949272 72.94115353 53.92708492 C75.7194775 62.27238241 78.49667259 70.61805243 81.27124023 78.96459961 C83.68872008 86.23693386 86.10828748 93.50856954 88.53039557 100.77936369 C89.81356134 104.63147504 91.0956578 108.48393504 92.37525749 112.33723259 C93.57840009 115.96018242 94.78432056 119.58219526 95.99242592 123.20349312 C96.4365131 124.53630726 96.87956339 125.86946738 97.32152557 127.20298767 C97.92273217 129.0164844 98.52795161 130.82864936 99.13340759 132.64073181 C99.47170562 133.65746947 99.81000364 134.67420713 100.15855312 135.72175503 C100.79544101 137.93488223 100.79544101 137.93488223 102 139 C102.19948746 138.36030777 102.39897491 137.72061554 102.60450745 137.0615387 C112.74707813 104.54111653 122.91598372 72.02899862 133.14254761 39.53488159 C134.17382481 36.25803428 135.20432366 32.98094379 136.23416138 29.7036438 C137.45198128 25.82838179 138.67148341 21.95365327 139.89233017 18.0793438 C140.34336588 16.64711686 140.79383741 15.21471211 141.24371719 13.78212166 C141.85841415 11.82511865 142.47540782 9.86883747 143.0925293 7.91259766 C143.43857712 6.81323883 143.78462494 5.71388 144.14115906 4.58120728 C145 2 145 2 146 0 C163.82 0 181.64 0 200 0 C199.15539669 4.22301657 198.01434453 8.01967602 196.53515625 12.03125 C196.27526413 12.74414688 196.01537201 13.45704376 195.74760437 14.19154358 C194.85687938 16.62929775 193.95998039 19.06472529 193.0625 21.5 C192.58290833 22.80649002 192.58290833 22.80649002 192.09362793 24.13937378 C183.77273042 46.80130743 175.21865593 69.37654527 166.69195557 91.96159363 C166.26733913 93.08630601 166.26733913 93.08630601 165.83414459 94.23373985 C165.25857091 95.75830261 164.68298389 97.28286034 164.10738373 98.8074131 C157.72769579 115.70641007 151.38156813 132.6179359 145.04223251 149.53210449 C143.90357413 152.57000399 142.76460953 155.60778865 141.62565327 158.64557648 C136.62986718 171.97042606 131.63639068 185.29613471 126.65087891 198.62483215 C115.23742041 229.13720176 103.68825522 259.59153114 92 290 C73.85 290 55.7 290 37 290 C40.37157782 278.76140726 40.37157782 278.76140726 42.6875 273.23828125 C42.94272934 272.62505005 43.19795868 272.01181885 43.46092224 271.38000488 C44.01413398 270.05147953 44.56936025 268.72379154 45.12643433 267.3968811 C46.02434738 265.25440567 46.91384741 263.10861158 47.80102539 260.96166992 C50.69970029 253.94761492 53.60802779 246.93766013 56.53076172 239.93359375 C58.74631293 234.62045674 60.94390804 229.30014448 63.13208008 223.97567749 C63.99967569 221.87339695 64.87334322 219.7736116 65.75317383 217.67642212 C66.99538887 214.71356263 68.21657901 211.74281388 69.43359375 208.76953125 C69.80995468 207.88543579 70.18631561 207.00134033 70.57408142 206.0904541 C73.96644282 197.68558253 72.14702437 191.73212768 69.03515625 183.5625 C68.73083176 182.74693634 68.42650726 181.93137268 68.11296082 181.09109497 C67.10321247 178.39135143 66.08303648 175.69568215 65.0625 173 C64.33972658 171.07552427 63.61740513 169.15087875 62.89550781 167.22607422 C57.00259129 151.54274309 51.00632709 135.89853336 44.99633789 120.25976562 C38.8488536 104.2577606 32.78796671 88.22397241 26.75073242 72.18008423 C22.11500939 59.862439 17.4576092 47.553925 12.734375 35.26953125 C12.31160278 34.16942719 11.88883057 33.06932312 11.45324707 31.93588257 C9.43471819 26.68579766 7.411836 21.43744397 5.3828125 16.19140625 C4.66658152 14.33206405 3.95043094 12.47269087 3.234375 10.61328125 C2.90419373 9.76393509 2.57401245 8.91458893 2.23382568 8.039505 C0 2.22654513 0 2.22654513 0 0 Z " fill="#F47420" transform="translate(1794,170)"/>
<path d="M0 0 C16.17 0 32.34 0 49 0 C49.029729 5.62325317 49.029729 5.62325317 49.06005859 11.36010742 C49.12710987 23.77730557 49.20465025 36.19441991 49.28752708 48.61152172 C49.33749748 56.13642056 49.38394117 63.66130935 49.421875 71.1862793 C49.45497469 77.75047607 49.49490286 84.31459108 49.54279006 90.87869722 C49.56787784 94.34940165 49.5897097 97.82005309 49.60334396 101.29082298 C49.61875013 105.17990101 49.64941225 109.06878316 49.68115234 112.95776367 C49.68331253 114.08921814 49.68547272 115.22067261 49.68769836 116.38641357 C49.83207791 130.32910165 51.01538256 144.75080798 61.0234375 155.3125 C71.44790843 164.21244356 87.08130476 163.85747309 100 163 C109.77731951 161.85143038 118.33199757 159.67563291 124.7734375 151.84375 C131.62845447 141.54450499 132.44703947 129.53991152 132.43237305 117.4987793 C132.4425647 116.21916321 132.45275635 114.93954712 132.46325684 113.62115479 C132.49052227 110.1571355 132.50006918 106.69328025 132.50611091 103.2291677 C132.51557512 99.59231464 132.54178407 95.95558038 132.56611633 92.31880188 C132.60956591 85.45210266 132.63824445 78.58542678 132.66143972 71.71863252 C132.68860783 63.89253407 132.73251149 56.06655641 132.77772844 48.24054468 C132.87026573 32.16041201 132.93987869 16.08029151 133 0 C150.16 0 167.32 0 185 0 C185.04016367 28.47604089 185.04016367 28.47604089 185.05025387 42.66733646 C185.05576867 50.30451654 185.06274014 57.94168555 185.07543945 65.57885742 C185.08658228 72.28325241 185.09230299 78.98763294 185.09487724 85.69203758 C185.09670919 88.23576228 185.10028595 90.77948641 185.10573006 93.32320595 C185.25547827 166.26636294 185.25547827 166.26636294 160 192 C159.38511719 192.639375 158.77023437 193.27875 158.13671875 193.9375 C139.88915913 211.44265355 110.16000054 213.61070653 86.21484375 213.1875 C62.38928771 212.48273221 37.90233001 207.3085264 20.70703125 189.64453125 C-2.82232323 162.96216445 -0.16816653 123.57045799 -0.09765625 90.33203125 C-0.09578669 87.71359789 -0.09436534 85.09516418 -0.09336853 82.47673035 C-0.09029164 76.34330878 -0.08212873 70.20990558 -0.07201904 64.07649201 C-0.06074303 57.07981467 -0.05531886 50.08313633 -0.05032361 43.08645213 C-0.03994195 28.7242907 -0.02164328 14.36214901 0 0 Z " fill="#F47420" transform="translate(939,170)"/>
<path d="M0 0 C13.34406807 12.41153753 19.75671669 30.25692415 21.34765625 48.18359375 C21.49003599 52.88511274 21.47420443 57.58566412 21.46118164 62.28881836 C21.46089926 63.71840411 21.46105849 65.14799001 21.46162415 66.57757568 C21.46191015 70.44275319 21.45604524 74.30789945 21.44905019 78.17306972 C21.44278388 82.21828854 21.44221026 86.26350815 21.44102478 90.30873108 C21.43792111 97.96189538 21.42972075 105.61504533 21.41967529 113.26820332 C21.40848417 121.98403823 21.40299615 130.69987383 21.39797986 139.41571414 C21.38753731 157.33835046 21.36920385 175.26096711 21.34765625 193.18359375 C5.17765625 193.18359375 -10.99234375 193.18359375 -27.65234375 193.18359375 C-27.67421753 186.71100952 -27.67421753 186.71100952 -27.6965332 180.10766602 C-27.74688326 165.84640442 -27.81332967 151.58525133 -27.88805866 137.32409763 C-27.93297162 128.67807295 -27.97239661 120.03208905 -27.9987793 111.38598633 C-28.02179588 103.84762536 -28.05523466 96.30939391 -28.10104531 88.77113575 C-28.12492831 84.78186352 -28.14368926 80.79271918 -28.14995766 76.80337715 C-28.15603091 73.04322556 -28.17611087 69.28340098 -28.20661926 65.52337074 C-28.21951185 63.49622026 -28.2178357 61.46899325 -28.21562195 59.44180298 C-28.29937593 51.26549712 -29.1478828 44.59144502 -33.21484375 37.43359375 C-43.8510638 27.61554447 -59.55883113 26.79580808 -73.3203125 27.27685547 C-91.73733939 27.64917918 -91.73733939 27.64917918 -107.65234375 35.18359375 C-107.96829864 38.02768699 -107.96829864 38.02768699 -107.93081665 41.4223938 C-107.93660905 42.06930392 -107.94240145 42.71621404 -107.94836938 43.3827275 C-107.9654349 45.56005178 -107.96825142 47.73716493 -107.97119141 49.91455078 C-107.98048509 51.47148157 -107.99065292 53.02840734 -108.00163269 54.58532715 C-108.02901001 58.82060018 -108.0441049 63.05583982 -108.05706072 67.29117823 C-108.07265756 71.71416731 -108.09945868 76.13708782 -108.12509155 80.56002808 C-108.17194057 88.93935362 -108.20865497 97.31869198 -108.24176443 105.69808185 C-108.27994265 115.23607851 -108.329364 124.77400642 -108.37974858 134.3119452 C-108.4831595 153.93578369 -108.57090561 173.55965092 -108.65234375 193.18359375 C-124.82234375 193.18359375 -140.99234375 193.18359375 -157.65234375 193.18359375 C-157.74272909 170.03486595 -157.81637528 146.8862816 -157.85959244 123.73742199 C-157.8801946 112.98837645 -157.90827034 102.23944854 -157.95410156 91.49047852 C-157.99404115 82.11880691 -158.01979361 72.74722052 -158.02869773 63.37546617 C-158.03390041 58.41576827 -158.04607964 53.45631414 -158.07526398 48.49669456 C-158.10254567 43.82225172 -158.11076309 39.14815153 -158.10477448 34.47363663 C-158.10586903 32.76408967 -158.11374663 31.05453049 -158.12916565 29.34505272 C-158.22754532 17.8686446 -157.85375283 6.54053847 -149.47265625 -2.26171875 C-145.84893864 -5.35665354 -141.87718953 -7.64054724 -137.65234375 -9.81640625 C-136.93820312 -10.18636719 -136.2240625 -10.55632812 -135.48828125 -10.9375 C-98.31650318 -27.81585153 -32.19131577 -26.98764825 0 0 Z " fill="#F47421" transform="translate(1327.65234375,183.81640625)"/>
<path d="M0 0 C0 14.19 0 28.38 0 43 C-10.05536181 40.76547515 -10.05536181 40.76547515 -13.5078125 39.78125 C-37.00428212 33.23330155 -63.95216288 29.11566816 -86.375 41.28125 C-96.47156989 47.89209933 -100.3797796 58.88825736 -103.421875 70.1015625 C-105.23693353 79.20138297 -105.24996427 88.36578006 -105.29516602 97.6081543 C-105.30663412 99.23194122 -105.32700326 100.855692 -105.35668945 102.47924805 C-105.65244522 118.73259713 -104.03839212 135.35152993 -93.0703125 148.2734375 C-81.85699818 159.32245418 -65.53225183 161.37626797 -50.43212891 161.30273438 C-35.42885151 160.91958139 -21.22012033 157.54983787 -7 153 C-3.535 152.01 -3.535 152.01 0 151 C0 165.52 0 180.04 0 195 C-17.33823529 200.77941176 -17.33823529 200.77941176 -24.875 202.25 C-26.0196875 202.48976563 -26.0196875 202.48976563 -27.1875 202.734375 C-58.48578599 209.10012808 -95.74834581 206.91595474 -123 189 C-126.57997636 186.21557394 -129.79897747 183.20688521 -133 180 C-133.62132812 179.44957031 -134.24265625 178.89914062 -134.8828125 178.33203125 C-151.20137616 163.51360461 -158.89804659 137.27486939 -160.1227417 115.85305786 C-160.30181342 111.01740398 -160.32829246 106.18400285 -160.31567383 101.34545898 C-160.31252616 98.83337424 -160.33601953 96.32248612 -160.36132812 93.81054688 C-160.46604116 67.07321811 -154.54757934 38.33623479 -136 18 C-135.25105469 17.17113281 -134.50210938 16.34226563 -133.73046875 15.48828125 C-100.99079529 -19.0043826 -41.2501815 -16.5000726 0 0 Z " fill="#F47420" transform="translate(744,175)"/>
<path d="M0 0 C0 14.19 0 28.38 0 43 C-3.87001657 42.35499724 -7.32902253 41.70743467 -11.0546875 40.66015625 C-36.02851098 33.78579857 -65.31108265 28.18148698 -89.30859375 41.21875 C-99.85722098 48.20013464 -104.0367798 58.82898441 -106.61328125 70.80859375 C-108.18721462 78.61225775 -108.45900199 86.2641901 -108.39111328 94.20629883 C-108.37503192 96.4330794 -108.39106793 98.6580394 -108.41015625 100.88476562 C-108.43491565 117.39042851 -106.63063682 135.37245146 -95 148 C-95 148.66 -95 149.32 -95 150 C-94.46375 150.2475 -93.9275 150.495 -93.375 150.75 C-91 152 -91 152 -88.5625 153.875 C-81.75107405 158.50261 -72.14072657 160.6688518 -64 161 C-62.90945313 161.0515625 -61.81890625 161.103125 -60.6953125 161.15625 C-43.45387984 161.57254214 -26.82630344 158.42489749 -10.3190918 153.63842773 C-6.89607961 152.6960994 -3.4443468 151.8610867 0 151 C0 165.52 0 180.04 0 195 C-36.7520073 206.60589704 -78.33544817 211.63848234 -114.40234375 194.37109375 C-135.40911868 182.71868706 -148.86495013 164.29326675 -155.75 141.59765625 C-165.79062442 106.13230695 -163.74994396 63.42416317 -145.75 30.8125 C-132.38542387 8.98858778 -113.21838713 -2.51721263 -88.9765625 -8.78125 C-86.65363791 -9.27954297 -84.35316473 -9.67701661 -82 -10 C-80.89978516 -10.16435547 -80.89978516 -10.16435547 -79.77734375 -10.33203125 C-53.88343604 -13.57417328 -24.15125714 -9.66050286 0 0 Z " fill="#F47420" transform="translate(1541,175)"/>
<path d="M0 0 C17.16 0 34.32 0 52 0 C52 95.04 52 190.08 52 288 C34.84 288 17.68 288 0 288 C0 192.96 0 97.92 0 0 Z " fill="#F47421" transform="translate(2502,90)"/>
<path d="M0 0 C16.83 0 33.66 0 51 0 C51 95.04 51 190.08 51 288 C34.17 288 17.34 288 0 288 C0 192.96 0 97.92 0 0 Z " fill="#F47521" transform="translate(2394,90)"/>
<path d="M0 0 C0 14.19 0 28.38 0 43 C-12.30070478 44.11824589 -12.30070478 44.11824589 -16.578125 44.2109375 C-38.25726198 43.99283449 -38.25726198 43.99283449 -57 53 C-57.31595489 55.84409324 -57.31595489 55.84409324 -57.2784729 59.23880005 C-57.2842653 59.88571017 -57.2900577 60.53262029 -57.29602563 61.19913375 C-57.31309115 63.37645803 -57.31590767 65.55357118 -57.31884766 67.73095703 C-57.32814134 69.28788782 -57.33830917 70.84481359 -57.34928894 72.4017334 C-57.37666626 76.63700643 -57.39176115 80.87224607 -57.40471697 85.10758448 C-57.42031381 89.53057356 -57.44711493 93.95349407 -57.4727478 98.37643433 C-57.51959682 106.75575987 -57.55631122 115.13509823 -57.58942068 123.5144881 C-57.6275989 133.05248476 -57.67702025 142.59041267 -57.72740483 152.12835145 C-57.83081575 171.75218994 -57.91856186 191.37605717 -58 211 C-75.16 211 -92.32 211 -110 211 C-110.06770791 186.85223379 -110.12297654 162.70454438 -110.15543652 138.55670738 C-110.17090851 127.34457375 -110.19200445 116.13250326 -110.22631836 104.92041016 C-110.25621045 95.14849322 -110.27557258 85.37662201 -110.28226548 75.60466063 C-110.28617805 70.42999017 -110.29538015 65.25545054 -110.31719017 60.08082199 C-110.33755225 55.21027078 -110.34383433 50.33990431 -110.33932304 45.46931458 C-110.34014837 43.681886 -110.34611566 41.89445125 -110.35761642 40.10705948 C-110.37255628 37.66541515 -110.36894835 35.22446705 -110.36076355 32.7828064 C-110.36950207 32.07656706 -110.3782406 31.37032773 -110.38724393 30.6426872 C-110.33768 25.16732329 -108.88194544 21.25379972 -105.37890625 17.05859375 C-79.81644975 -5.75521152 -31.06994674 -0.28591976 0 0 Z " fill="#F47420" transform="translate(901,167)"/>
<path d="M0 0 C10.27125 0.061875 10.27125 0.061875 20.75 0.125 C20.75 14.315 20.75 28.505 20.75 43.125 C4.75 43.9375 4.75 43.9375 -0.1875 44.17114258 C-18.01160042 44.82170419 -18.01160042 44.82170419 -34.25 51.125 C-34.91 51.125 -35.57 51.125 -36.25 51.125 C-37.32304433 54.62755946 -37.38766647 57.87601288 -37.40821838 61.52838135 C-37.4180072 62.84648804 -37.42779602 64.16459473 -37.43788147 65.52264404 C-37.44378533 66.98156702 -37.4495958 68.44049038 -37.45532227 69.89941406 C-37.46490329 71.436933 -37.47491351 72.97444932 -37.48532104 74.51196289 C-37.51235185 78.68512987 -37.5333713 82.85830814 -37.55332303 87.03151417 C-37.57519383 91.39308033 -37.60257717 95.75461176 -37.62937927 100.1161499 C-37.67929136 108.37500126 -37.7242357 116.63387192 -37.76740164 124.89276099 C-37.81678669 134.29535798 -37.87170012 143.69792013 -37.92708123 153.10048342 C-38.0408785 172.44195804 -38.14699265 191.7834647 -38.25 211.125 C-55.08 211.125 -71.91 211.125 -89.25 211.125 C-89.34029631 186.86411914 -89.41397975 162.60337435 -89.45724869 138.34236813 C-89.47787325 127.07754945 -89.50599195 115.8128426 -89.55175781 104.5480957 C-89.59162867 94.72965707 -89.61743358 84.91129942 -89.62635398 75.09278208 C-89.63156827 69.89400206 -89.64382178 64.69545373 -89.67292023 59.49674797 C-89.70009312 54.60235367 -89.70844115 49.70828627 -89.70243073 44.8138237 C-89.70353012 43.01874451 -89.71147282 41.22365427 -89.7268219 39.42864037 C-89.74677953 36.97403582 -89.74191872 34.52065885 -89.73101807 32.06602478 C-89.74266943 31.35880734 -89.7543208 30.6515899 -89.76632524 29.92294163 C-89.70154593 24.51124913 -88.18709123 21.5084293 -85.25 17.125 C-76.93451833 9.16809146 -64.64175631 6.20671096 -53.6875 3.9375 C-52.95233154 3.78265137 -52.21716309 3.62780273 -51.4597168 3.46826172 C-34.424532 0.1995834 -17.2857259 -0.14881053 0 0 Z " fill="#F47420" transform="translate(2114.25,166.875)"/>
</svg>
