<?xml version="1.0" encoding="UTF-8"?>
<svg version="1.1" xmlns="http://www.w3.org/2000/svg" width="2560" height="1075">
<path d="M0 0 C1.23679504 0.06896484 2.47359009 0.13792969 3.74786377 0.20898438 C61.67386572 3.46770639 119.45214345 7.7220516 168 43 C168.58974609 43.41620605 169.17949219 43.83241211 169.78710938 44.26123047 C187.20985911 56.61654638 203.09306384 72.60930029 214 91 C214.38510742 91.63147949 214.77021484 92.26295898 215.16699219 92.91357422 C217.96104844 97.51781479 220.53928394 102.2098951 223 107 C223.35239746 107.68320313 223.70479492 108.36640625 224.06787109 109.0703125 C244.75274157 150.04317609 254.59932059 197.79238517 259.0625 243.0625 C259.31585162 245.55667218 259.56952004 248.0508122 259.82348633 250.54492188 C263.86233201 290.626521 266.85857344 330.77394704 269 371 C269.07511086 372.40377301 269.07511086 372.40377301 269.15173912 373.83590508 C271.54939772 419.33150683 271.30886819 464.85903117 271.25713813 510.40226406 C271.24959624 517.81498813 271.25231855 525.22765874 271.26074219 532.64038086 C271.31142512 578.4631537 271.35279442 624.22478953 269 670 C268.92330938 671.55053172 268.84691845 673.1010783 268.77087402 674.65164185 C268.34624569 683.21114302 267.82907867 691.76214471 267.25 700.3125 C267.16896027 701.54569977 267.08792053 702.77889954 267.00442505 704.04946899 C265.61313789 725.12233894 263.85539385 746.15690994 261.9375 767.1875 C261.84396996 768.21482931 261.84396996 768.21482931 261.74855042 769.26291275 C260.87438454 778.8461201 259.95975335 788.42497007 259 798 C258.87831451 799.21530396 258.75662903 800.43060791 258.6312561 801.68273926 C257.2563234 815.21562174 255.69401661 828.57556399 252.8125 841.875 C252.66482178 842.57248352 252.51714355 843.26996704 252.36499023 843.98858643 C242.21525141 891.8851878 226.73400669 941.17072017 192 977 C191.28972656 977.75023437 190.57945313 978.50046875 189.84765625 979.2734375 C176.41957742 993.16834116 160.07235957 1004.11945606 143 1013 C142.33129883 1013.34804687 141.66259766 1013.69609375 140.97363281 1014.0546875 C64.45151957 1053.25523083 -43.43916523 1043.36847866 -338.40161133 1051.90429688 C-342.80847395 1051.97919061 -347.21527849 1052.05692219 -351.62206364 1052.13623142 C-444.9909162 1053.81630068 -538.36477689 1053.267971 -661 1051 C-662.06267169 1050.97931489 -662.06267169 1050.97931489 -663.14681149 1050.9582119 C-745.37355995 1049.35619738 -827.61084815 1047.63691446 -954 1042 C-955.04414062 1041.9451947 -956.08828125 1041.8903894 -957.1640625 1041.83392334 C-1036.11871784 1037.67799948 -1122.00677347 1030.63383204 -1178.8203125 969 C-1185.52094531 961.27011639 -1190.85294019 952.80481338 -1196 944 C-1196.66644531 942.8759375 -1197.33289062 941.751875 -1198.01953125 940.59375 C-1211.52852669 916.60221432 -1219.92360941 889.62617679 -1226.6875 863.0625 C-1226.94885742 862.04164307 -1227.21021484 861.02078613 -1227.47949219 859.96899414 C-1232.75525025 838.49547325 -1235.97945634 816.93304426 -1238.0625 794.9375 C-1238.31569115 792.34695913 -1238.56936225 789.75646514 -1238.82348633 787.16601562 C-1247.19735608 701.02249396 -1250.37320964 615.0742944 -1250.25713813 528.56735206 C-1250.24959519 522.29374021 -1250.25232537 516.02019157 -1250.26074219 509.74658203 C-1250.31855005 465.45655633 -1249.96083012 421.25368828 -1248 377 C-1247.96112167 376.12019974 -1247.92224335 375.24039948 -1247.88218689 374.3339386 C-1247.4417933 364.50745666 -1246.89019245 354.69061317 -1246.25 344.875 C-1246.16862793 343.58537354 -1246.08725586 342.29574707 -1246.00341797 340.96704102 C-1244.64428876 319.45202651 -1242.91060201 297.97255597 -1241 276.5 C-1240.93968094 275.81752953 -1240.87936188 275.13505905 -1240.81721497 274.43190765 C-1239.43039156 258.74955009 -1237.84733153 243.09779194 -1235.98828125 227.46484375 C-1235.90966354 226.79194305 -1235.83104584 226.11904236 -1235.75004578 225.42575073 C-1229.19058834 169.6289231 -1211.98737347 106.33905934 -1172 65 C-1171.12601563 64.07445313 -1170.25203125 63.14890625 -1169.3515625 62.1953125 C-1104.18782393 -5.26157816 -1001.46327877 0.659839 -673.32793617 -10.53857422 C-667.08160808 -10.64630876 -660.8352291 -10.75099275 -654.58883762 -10.85498047 C-648.45608171 -10.95739055 -642.32347176 -11.06585527 -636.19091797 -11.1796875 C-555.31275718 -12.67075922 -474.35172494 -12.61336375 0 0 Z " fill="#CD201F" transform="translate(2286,15)"/>
<path d="M0 0 C30.36 0 60.72 0 92 0 C92.33 72.93 92.66 145.86 93 221 C96.63 217.04 100.26 213.08 104 209 C124.01627852 187.87878891 150.99626397 166.50938868 181.5078125 165.63671875 C183.71360623 165.63802395 185.91944492 165.65502716 188.125 165.6875 C189.22714844 165.68427734 190.32929687 165.68105469 191.46484375 165.67773438 C210.23274318 165.80018212 226.90518569 172.08584229 240.625 185.0625 C273.74949855 219.74191811 275.15609797 276.71525097 275.14526367 321.82519531 C275.14826036 324.32378692 275.15166405 326.82237807 275.15544128 329.32096863 C275.16332806 335.37975142 275.16649408 341.43851887 275.16705366 347.49730536 C275.16753173 352.4380421 275.16960089 357.37877568 275.17275429 362.31951141 C275.18155301 376.39698627 275.18617566 390.47445355 275.18542381 404.55193117 C275.18536388 405.68710659 275.18536388 405.68710659 275.18530273 406.84521484 C275.18526185 407.60294849 275.18522097 408.36068214 275.18517885 409.14137742 C275.18477408 421.36836586 275.19430282 433.59532325 275.2084411 445.82230273 C275.22291896 458.44515082 275.22970488 471.06798391 275.22884732 483.69084048 C275.22851893 490.74968966 275.23116088 497.80850611 275.24202538 504.86734772 C275.3521361 580.00148577 275.3521361 580.00148577 270.6875 607.125 C270.5795108 607.77726563 270.47152161 608.42953125 270.36026001 609.1015625 C266.10761501 634.74195297 256.60856829 660.18271457 234.99609375 676.23046875 C227.0699125 681.41409404 219.08804271 684.52667192 210 687 C208.98268799 687.27710815 208.98268799 687.27710815 207.94482422 687.55981445 C183.16271406 693.74289284 159.48728566 686.4717238 138.28125 673.80078125 C120.81814323 663.07794469 105.75617136 648.9452142 93 633 C92.67 649.5 92.34 666 92 683 C61.64 683 31.28 683 0 683 C0 457.61 0 232.22 0 0 Z " fill="#FEFDFD" transform="translate(1813,182)"/>
<path d="M0 0 C1.11084961 0.19287598 1.11084961 0.19287598 2.24414062 0.38964844 C26.30394517 4.69151522 46.72685766 17.11666059 64 34 C64.86238281 34.80050781 65.72476563 35.60101563 66.61328125 36.42578125 C97.00950848 65.309288 106.53584385 109.61452319 108 150 C108.17831994 159.5283989 108.11689487 169.06027891 108.09765625 178.58984375 C108.09618318 181.03682431 108.09516472 183.48380519 108.09460449 185.93078613 C108.08939396 194.93302894 108.07543277 203.93526497 108.0625 212.9375 C108.041875 233.088125 108.02125 253.23875 108 274 C47.61 274 -12.78 274 -75 274 C-74.87625 290.933125 -74.7525 307.86625 -74.625 325.3125 C-74.59100098 330.62126221 -74.55700195 335.93002441 -74.52197266 341.3996582 C-74.48197816 346.23861987 -74.48197816 346.23861987 -74.43954468 351.07756042 C-74.42208095 353.20086699 -74.40818163 355.324205 -74.39730835 357.44755554 C-74.33989949 368.18157542 -74.20469666 378.85709514 -73.11865234 389.54370117 C-73.04438334 390.28662824 -72.97011433 391.0295553 -72.89359474 391.79499531 C-71.40441175 404.73918798 -66.68151693 418.34589216 -57.02734375 427.4296875 C-46.17645704 435.83442056 -34.1143141 435.77787012 -21 435 C-11.60732994 433.64174624 -4.311614 428.3916248 1.62109375 421.1171875 C6.91097776 412.99504264 10.20591321 402.8944205 10.31884766 393.23852539 C10.33890869 391.9196936 10.35896973 390.60086182 10.37963867 389.24206543 C10.39136688 387.86059783 10.40284373 386.47912808 10.4140625 385.09765625 C10.44052856 383.19155579 10.44052856 383.19155579 10.4675293 381.24694824 C10.53039857 376.51892545 10.5767216 371.7906943 10.625 367.0625 C10.74875 356.481875 10.8725 345.90125 11 335 C43.01 335 75.02 335 108 335 C108 377.56609513 108 377.56609513 107.16650391 388.72363281 C107.05060681 390.30812631 106.94703458 391.89354944 106.85302734 393.47949219 C105.08068274 423.15360467 95.75478851 452.32135285 76 475 C75.28972656 475.83144531 74.57945312 476.66289063 73.84765625 477.51953125 C56.62558789 497.22351455 33.64374963 511.10262175 8 516.6875 C6.61941406 517.00557617 6.61941406 517.00557617 5.2109375 517.33007812 C-31.43763123 525.51148396 -71.99590029 519.84109016 -104.390625 501.03125 C-138.07796329 479.51368313 -158.4569106 445.53882553 -167 407 C-171.2923653 386.60239629 -172.30521616 365.87030784 -172.25878906 345.08349609 C-172.26150886 342.99450052 -172.26507527 340.90550591 -172.26940918 338.81651306 C-172.27841686 333.21538739 -172.27503796 327.61433656 -172.26865101 322.01320982 C-172.26353138 316.10895325 -172.2682987 310.20470242 -172.27142334 304.30044556 C-172.27504524 294.39397042 -172.27031022 284.48752526 -172.26074219 274.58105469 C-172.24985508 263.17818978 -172.25339232 251.77539639 -172.264395 240.3725332 C-172.27351158 230.5247186 -172.27473207 220.67692535 -172.26951766 210.82910788 C-172.26642265 204.97248961 -172.26591995 199.11590482 -172.27259064 193.25928879 C-172.27842776 187.75149549 -172.27425255 182.24379321 -172.26280212 176.7360096 C-172.26018947 174.73192177 -172.26086133 172.72782609 -172.26532745 170.72374153 C-172.35413757 126.77275541 -165.30249854 78.56053715 -136 44 C-135.5575293 43.47776855 -135.11505859 42.95553711 -134.65917969 42.41748047 C-112.21326987 16.27374052 -79.61952221 -0.07310789 -45.26220703 -2.85498047 C-29.91110823 -3.83906774 -15.11052386 -2.77005977 0 0 Z " fill="#FEFEFE" transform="translate(2321,351)"/>
<path d="M0 0 C32.34 0 64.68 0 98 0 C98.0093457 12.7062085 98.01869141 25.41241699 98.02832031 38.50366211 C98.06102127 79.14885236 98.11330234 119.79399628 98.17792095 160.43914783 C98.18793853 166.75150522 98.19778264 173.06386287 98.20751953 179.3762207 C98.2094609 180.63290873 98.21140228 181.88959675 98.21340248 183.18436623 C98.2444319 203.53814205 98.26140577 223.89190659 98.27319422 244.2457016 C98.28560089 265.12727642 98.31309137 286.008792 98.35461307 306.89032942 C98.37976226 319.77755486 98.39311623 332.66468207 98.39142957 345.5519324 C98.39139984 354.38665788 98.4060086 363.22128324 98.43216428 372.05596971 C98.44682614 377.15474317 98.45499946 382.25331129 98.44580269 387.35210228 C98.43752314 392.02134825 98.44765046 396.69018142 98.47233662 401.35936613 C98.47802601 403.04725833 98.47699586 404.73518959 98.46851245 406.42307007 C98.42349204 416.22101348 98.67375683 424.37588388 104.875 432.4375 C110.09387579 436.27490867 115.74855126 436.63625407 122 436 C140.47836565 432.49294177 154.13782959 417.49304483 164.61563766 402.80911636 C166 401 166 401 167.533373 399.47417831 C173.566306 392.99067126 172.83733691 385.43297314 172.75949097 377.11816406 C172.76624268 375.4902005 172.77562392 373.86224608 172.78740036 372.2343111 C172.81210488 367.77131231 172.79959537 363.30907956 172.78093672 358.84608006 C172.76734437 354.02948869 172.78836571 349.21303303 172.80516052 344.39646912 C172.82951956 336.05496635 172.83199995 327.71368782 172.81957626 319.37216187 C172.80164551 307.31179868 172.81677913 295.25165482 172.83995558 283.19130886 C172.87666194 263.62377858 172.88666696 244.0563295 172.87988281 224.48876953 C172.87335024 205.48190551 172.8793914 186.475114 172.90234375 167.46826172 C172.90445973 165.71058051 172.90445973 165.71058051 172.90661846 163.91739058 C172.91377295 158.03881539 172.92117465 152.16024053 172.92869925 146.2816658 C172.9907933 97.52107559 173.00463605 48.76063849 173 0 C205.34 0 237.68 0 271 0 C271 169.95 271 339.9 271 515 C238.66 515 206.32 515 173 515 C172.67 497.51 172.34 480.02 172 462 C168.04 466.29 164.08 470.58 160 475 C152.10662009 483.23796401 144.10421692 491.08683944 135 498 C134.48002441 498.4017041 133.96004883 498.8034082 133.42431641 499.21728516 C110.3701319 516.92458592 85.22779844 524.74983003 56.09375 521.57421875 C40.26086983 518.38020951 27.08513252 509.37344365 17.5859375 496.41796875 C-3.39332922 464.43233797 -0.30979194 420.8610303 -0.23213124 384.33667481 C-0.2233855 379.16392378 -0.22642465 373.99117677 -0.22793579 368.81842041 C-0.2289777 359.8852257 -0.2227743 350.9520605 -0.21146011 342.01887321 C-0.19511305 329.10344652 -0.18998776 316.1880339 -0.18748413 303.27259798 C-0.18312137 282.31136259 -0.16985103 261.3501429 -0.15087891 240.38891602 C-0.1324832 220.04321368 -0.11834482 199.69751563 -0.10986328 179.35180664 C-0.10933783 178.0948756 -0.10881239 176.83794456 -0.10827102 175.54292469 C-0.10566069 169.23642844 -0.10313333 162.92993216 -0.10064721 156.62343585 C-0.07995895 104.41560997 -0.04311324 52.20781313 0 0 Z " fill="#000000" transform="translate(688,350)"/>
<path d="M0 0 C35.64 0 71.28 0 108 0 C112.37810061 15.01063067 116.67487752 29.98939678 120.640625 45.10546875 C121.16190995 47.08228122 121.68351665 49.05900886 122.20541382 51.03565979 C123.31396509 55.23611472 124.42079753 59.43701681 125.52618408 63.63830566 C128.19428956 73.77803303 130.87224015 83.91516187 133.55026627 94.0522728 C134.1695935 96.39662008 134.78882257 98.7409933 135.40795517 101.085392 C143.79618985 132.84504675 152.29324774 164.57554417 160.79053497 196.30615711 C162.82316113 203.89698907 164.85374677 211.48836498 166.88246918 219.0802412 C168.05478347 223.46685118 169.22841418 227.85309962 170.40515137 232.23852539 C171.49776146 236.31054592 172.58695224 240.38346484 173.67341232 244.45713043 C174.06872399 245.93684811 174.46532191 247.41622285 174.86330032 248.89522552 C175.4010723 250.89442078 175.93427683 252.89477863 176.46630859 254.89550781 C176.76459564 256.00984192 177.06288269 257.12417603 177.37020874 258.27227783 C178 261 178 261 178 264 C178.66 264 179.32 264 180 264 C180.12628784 263.15593346 180.12628784 263.15593346 180.25512695 262.29481506 C181.89111111 252.38342629 184.59753339 242.75255874 187.1875 233.05859375 C187.71915068 231.05596709 188.25041593 229.05323808 188.78132629 227.05041504 C190.21663051 221.64001585 191.65714768 216.23101698 193.09857559 210.82224655 C194.61666162 205.12200547 196.12976658 199.42044259 197.64331055 193.71899414 C200.16394599 184.22608734 202.68724452 174.73389227 205.21240234 165.2421875 C208.84141322 151.60049609 212.46305535 137.9568566 216.08203125 124.3125 C216.50729347 122.7092175 216.50729347 122.7092175 216.94114685 121.07354546 C218.06963581 116.81899566 219.19810567 112.5644408 220.32650375 108.30986691 C222.24417463 101.07952684 224.16264534 93.84939935 226.08154297 86.61938477 C233.74289577 57.75198987 241.38166902 28.87878951 249 0 C284.64 0 320.28 0 357 0 C356.27863128 5.04958107 355.49031362 9.09697612 353.98828125 13.86889648 C353.68168957 14.85082222 353.68168957 14.85082222 353.36890411 15.85258484 C352.68855234 18.02706313 352.00052646 20.19903279 351.3125 22.37109375 C350.82198383 23.93360935 350.33196574 25.49628138 349.84240723 27.05909729 C348.78861798 30.41954385 347.73145539 33.7789032 346.67163086 37.13745117 C344.97429458 42.51638725 343.2844224 47.89765026 341.59570312 53.27929688 C339.53459092 59.84609821 337.47178323 66.41236197 335.40674591 72.97793007 C331.81128521 84.4099446 328.22896043 95.84601265 324.65625 107.28515625 C324.40123215 108.10165586 324.14621429 108.91815548 323.88346863 109.75939751 C322.60154699 113.86403878 321.31988015 117.96875955 320.03833008 122.07351685 C317.70459837 129.54793522 315.3685764 137.02163792 313.03276062 144.4954052 C311.73008312 148.66357514 310.42754869 152.8317898 309.125 157 C308.60416735 158.66666688 308.08333402 160.33333355 307.5625 162 C307.3046875 162.825 307.046875 163.65 306.78125 164.5 C279.4375 252 279.4375 252 278.69963223 254.36104441 C278.18057387 256.02211452 277.66160467 257.6832125 277.14276308 259.34435034 C275.85828555 263.45628118 274.57237286 267.56774785 273.282197 271.67789459 C270.93267584 279.16961094 268.59218607 286.66309256 266.32578117 294.18043947 C261.51339473 310.13912159 256.6499279 325.92553679 250.20543802 341.30980015 C224.00128941 404.43874036 227.82041206 470.90781542 228.7539407 537.9145422 C228.91157267 549.38908193 229.00399672 560.86288029 229.05395508 572.33837891 C229.05753617 573.15670678 229.06111726 573.97503466 229.06480687 574.81816036 C229.08245925 578.92703034 229.09906498 583.03590377 229.11515224 587.14478016 C229.24812049 620.76604666 229.58200188 654.38076952 230 688 C196.01 688 162.02 688 127 688 C127.10586426 679.86698242 127.21172852 671.73396484 127.32080078 663.35449219 C127.64525268 636.94734957 127.83480616 610.54075463 127.9455163 584.13190518 C127.96300209 579.98913649 127.98163373 575.8463737 128.00097656 571.70361328 C128.00480602 570.87930338 128.00863548 570.05499347 128.01258098 569.20570448 C128.06843173 557.69236347 128.18566541 546.18111991 128.35341028 534.66888646 C128.64253131 514.8156489 128.81902663 494.96489682 128.7578125 475.109375 C128.75547339 474.33479524 128.75313428 473.56021548 128.75072429 472.76216361 C128.56972795 422.6968078 123.21676155 377.6437468 103.96067905 330.88268405 C99.12347913 319.13507061 95.46734408 307.11368873 91.89566231 294.92861748 C90.28610759 289.48407443 88.59241991 284.06572685 86.90625 278.64453125 C86.25350193 276.53349086 85.6011084 274.42234078 84.94921875 272.31103516 C84.62791992 271.27094299 84.30662109 270.23085083 83.97558594 269.15924072 C82.66058043 264.90085732 81.34669909 260.64212747 80.03288269 256.38337708 C67.68275431 216.35208864 55.22683435 176.35404855 42.73870087 136.3656311 C42.01236999 134.03961391 41.28621182 131.71354288 40.56011963 129.38745117 C30.94432397 98.58305978 21.29821954 67.78952805 11.4375 37.0625 C11.08301788 35.957854 10.72853577 34.85320801 10.36331177 33.71508789 C5.59314546 18.82770089 5.59314546 18.82770089 0.61352539 4.00952148 C0 2 0 2 0 0 Z " fill="#000000" transform="translate(6,177)"/>
<path d="M0 0 C32.01 0 64.02 0 97 0 C97 168.3 97 336.6 97 510 C64.99 510 32.98 510 0 510 C-0.33 492.18 -0.66 474.36 -1 456 C-5.63254282 460.63254282 -9.9248356 465.03347252 -14.16796875 469.9375 C-20.81038883 477.41553369 -28.16269835 483.81155809 -36 490 C-37.49853516 491.22396484 -37.49853516 491.22396484 -39.02734375 492.47265625 C-60.20898239 509.56957196 -84.61767181 518.78498708 -112 517 C-127.55474503 515.23875645 -142.49554883 507.24205899 -152.328125 495.1328125 C-158.13029039 487.27491301 -161.81023331 479.19767678 -165 470 C-165.45826172 468.72576172 -165.45826172 468.72576172 -165.92578125 467.42578125 C-174.91345821 440.27838777 -173.29252224 410.09394893 -173.23213124 381.90697801 C-173.22339655 376.78190867 -173.2264239 371.6568435 -173.22793579 366.5317688 C-173.22897838 357.67820579 -173.22276775 348.82467254 -173.21146011 339.97111702 C-173.19512245 327.17077467 -173.1899887 314.37044652 -173.18748413 301.57009488 C-173.18311992 280.79631489 -173.16984558 260.02255071 -173.15087891 239.2487793 C-173.132487 219.08341551 -173.11834675 198.91805604 -173.10986328 178.75268555 C-173.10933783 177.50717704 -173.10881239 176.26166853 -173.10827102 174.97841734 C-173.10566071 168.72931611 -173.10313335 162.48021484 -173.10064721 156.23111355 C-173.07995442 104.48739498 -173.04310621 52.7437057 -173 1 C-140.99 1 -108.98 1 -76 1 C-75.98541748 13.45862793 -75.97083496 25.91725586 -75.95581055 38.75341797 C-75.9070568 78.61251076 -75.84364872 118.47156819 -75.77101372 158.33062433 C-75.7597455 164.52152279 -75.74860706 170.71242148 -75.73754883 176.90332031 C-75.73534514 178.13582111 -75.73314146 179.36832191 -75.730871 180.63817121 C-75.69549491 200.59680942 -75.67063252 220.5554476 -75.64965298 240.51410554 C-75.62789344 260.99226366 -75.59484151 281.47038107 -75.55129844 301.94850457 C-75.52478444 314.58542861 -75.50708719 327.22230193 -75.50065396 339.85925241 C-75.49539934 348.52390428 -75.47917977 357.18849233 -75.45433434 365.85311 C-75.44032203 370.85273783 -75.43114757 375.85225141 -75.43499184 380.8519001 C-75.43840648 385.43170121 -75.42801167 390.01125845 -75.40676448 394.59100963 C-75.4015039 396.24527322 -75.401254 397.89956218 -75.40660437 399.55382548 C-75.66142338 414.13745434 -75.66142338 414.13745434 -69.625 427 C-63.03640821 432.01987946 -55.99057407 431.80158874 -48 431 C-39.25688146 428.72700062 -32.58299642 424.02853271 -26 418 C-25.06542969 417.14664062 -24.13085938 416.29328125 -23.16796875 415.4140625 C-21.14185318 413.5130883 -19.21893326 411.55145632 -17.33176708 409.51288509 C-15.18233909 407.1989117 -12.96140337 405.06630403 -10.60711384 402.963624 C-0.05055683 392.60277322 0.51412899 381.26796246 0.67382467 367.30445492 C0.69372567 362.91543282 0.64739619 358.52830346 0.59339607 354.13966143 C0.54923902 349.37838937 0.58088816 344.61751297 0.60293579 339.85617065 C0.63086398 331.62412233 0.61166777 323.39329198 0.55968666 315.16137505 C0.48460326 303.25991793 0.48179637 291.35928854 0.49615004 279.45764304 C0.51750096 260.14445916 0.48108698 240.83183919 0.40795898 221.51879883 C0.33708241 202.76745435 0.2936517 184.01637451 0.28686523 165.26489258 C0.28643682 164.1074176 0.28600841 162.94994262 0.28556702 161.75739264 C0.28358607 155.95018977 0.28214188 150.14298692 0.28096449 144.33578384 C0.27051646 96.22343686 0.15544743 48.11213987 0 0 Z " fill="#FEFEFE" transform="translate(1640,355)"/>
<path d="M0 0 C32.54568936 29.78604505 41.6468822 76.50641293 43.90382409 118.65646982 C44.23777021 126.57676066 44.14751079 134.51337512 44.14526367 142.43896484 C44.14826215 144.56807514 44.15166624 146.69718489 44.15544128 148.82629395 C44.1642178 154.57070567 44.16661677 160.31510246 44.16725707 166.05952024 C44.16797146 169.66209407 44.17011314 173.26466419 44.17275429 176.86723709 C44.18198839 189.47480761 44.18609181 202.08236761 44.18530273 214.68994141 C44.18470323 226.37714235 44.19523498 238.06429695 44.2110464 249.75148618 C44.22419674 259.8370238 44.22948347 269.92254642 44.22884732 280.00809252 C44.22859443 286.0086198 44.23132857 292.00910587 44.24202538 298.00962448 C44.33629012 354.91827309 43.89339621 412.29171489 2.375 455.9375 C-24.61058143 482.21512637 -61.37346902 494.6229854 -98.6015625 494.15234375 C-113.16835094 493.72947088 -127.26060095 490.67905861 -141 485.9375 C-141.64275879 485.71723145 -142.28551758 485.49696289 -142.94775391 485.27001953 C-174.39263476 474.23264993 -200.60714437 450.07728605 -215.21557617 420.28051758 C-224.60898612 400.04311919 -229.13339523 378.07232777 -231 355.9375 C-231.0832166 354.9574339 -231.1664332 353.9773678 -231.25217152 352.96760273 C-232.0937703 341.8528271 -232.14845579 330.7778708 -232.14526367 319.63549805 C-232.14826226 317.52771445 -232.15166638 315.4199314 -232.15544128 313.31214905 C-232.1642172 307.62551955 -232.16661676 301.93890513 -232.16725707 296.25226951 C-232.16797156 292.68519993 -232.17011344 289.11813409 -232.17275429 285.55106544 C-232.1819886 273.06553533 -232.18609184 260.58001584 -232.18530273 248.09448242 C-232.18470341 236.52431684 -232.19523156 224.9541981 -232.2110464 213.38404435 C-232.22420237 203.39700406 -232.22948323 193.40997893 -232.22884732 183.42293006 C-232.22859457 177.48217449 -232.23132073 171.54146054 -232.24202538 165.60071373 C-232.34090393 106.53171686 -231.59319749 44.02813071 -187.625 -0.875 C-138.48280815 -49.42232032 -49.72739248 -43.13156149 0 0 Z M-123.75 66.5625 C-136.68539073 82.40236504 -135.4392693 104.4343033 -135.38818359 123.62084961 C-135.39225485 126.19805625 -135.39759982 128.77526114 -135.40411377 131.35246277 C-135.41737375 137.59426487 -135.41460806 143.83595804 -135.40587585 150.07776421 C-135.39906837 155.15641584 -135.39819573 160.2350372 -135.4014473 165.31369209 C-135.401907 166.03973555 -135.40236669 166.765779 -135.40284032 167.51382377 C-135.40379962 168.98931706 -135.40477226 170.46481035 -135.4057581 171.94030363 C-135.41428949 185.73930019 -135.40451366 199.53823671 -135.388357 213.33722342 C-135.37495871 225.14533719 -135.37728225 236.95336244 -135.39111328 248.76147461 C-135.40721396 262.51347751 -135.41346275 276.26542793 -135.40427649 290.01743895 C-135.40332097 291.48745667 -135.40237785 292.9574744 -135.4014473 294.42749214 C-135.40098447 295.15054104 -135.40052164 295.87358994 -135.40004479 296.61854942 C-135.39746811 301.68323736 -135.40179722 306.74789166 -135.40888596 311.81257439 C-135.41824091 318.64584346 -135.41145987 325.47894384 -135.39420319 332.31219673 C-135.39025978 334.8097875 -135.39133525 337.3073924 -135.39799118 339.80497742 C-135.53008844 371.22974777 -135.53008844 371.22974777 -120.3359375 397.80859375 C-112.0715305 405.34053658 -103.11747624 408.01515408 -92 407.9375 C-79.921138 406.59100391 -71.27422296 402.55043917 -63.5625 393.125 C-54.71197915 380.7342708 -52.84666123 366.00759246 -52.85955811 351.17419434 C-52.85658698 350.10073903 -52.85361586 349.02728372 -52.8505547 347.92129946 C-52.84189361 344.32968649 -52.84036163 340.73810695 -52.83886719 337.14648438 C-52.83423712 334.56883676 -52.82921221 331.99118984 -52.82382202 329.4135437 C-52.81026979 322.41317604 -52.80421857 315.41281413 -52.79981136 308.41243553 C-52.79704313 304.03541824 -52.79280468 299.65840314 -52.78830719 295.28138733 C-52.77611756 283.14618824 -52.76581831 271.0109909 -52.7624321 258.87578583 C-52.76221253 258.09985574 -52.76199297 257.32392564 -52.76176675 256.52448252 C-52.76154847 255.74676484 -52.76133019 254.96904716 -52.7611053 254.16776228 C-52.76066184 252.59198475 -52.76021528 251.01620722 -52.75976562 249.44042969 C-52.7595442 248.65880055 -52.75932277 247.87717142 -52.75909463 247.07185656 C-52.75515085 234.42094958 -52.73770831 221.77010036 -52.7144061 209.11921567 C-52.69063707 196.10908657 -52.67822769 183.09898638 -52.67706418 170.08883524 C-52.67615042 162.79293069 -52.67047418 155.49710136 -52.65224457 148.20121765 C-52.6351427 141.33278289 -52.63363228 134.46449253 -52.64238358 127.59604263 C-52.64315136 125.08351891 -52.63884556 122.57098738 -52.62892532 120.05848312 C-52.55330042 99.70110512 -52.50653087 78.64433985 -67.609375 63.06640625 C-76.16452069 55.44785331 -85.72563906 53.44896552 -96.94921875 53.69140625 C-107.78358791 54.56536945 -116.22881702 58.76575643 -123.75 66.5625 Z " fill="#000000" transform="translate(574,380.0625)"/>
<path d="M0 0 C105.6 0 211.2 0 320 0 C320 31.68 320 63.36 320 96 C283.04 96 246.08 96 208 96 C208 289.05 208 482.1 208 681 C174.67 681 141.34 681 107 681 C107 487.95 107 294.9 107 96 C71.69 96 36.38 96 0 96 C0 64.32 0 32.64 0 0 Z " fill="#FFFFFF" transform="translate(1162,183)"/>
<path d="M0 0 C10.17898625 8.31451847 13.193025 21.69960589 14.6625309 34.14509201 C15.63788171 44.07641504 15.3300678 54.11817103 15.30541992 64.08447266 C15.30649453 66.61728464 15.30843585 69.15009637 15.31117249 71.6829071 C15.3154957 77.81540711 15.31061657 83.947839 15.30132218 90.08033158 C15.29086971 97.23766263 15.29101018 104.39498232 15.29149476 111.55231957 C15.29199394 124.33046404 15.28287266 137.10858336 15.26831055 149.88671875 C15.25422017 162.25749164 15.24714017 174.62824241 15.24780273 186.99902344 C15.24786267 188.14253458 15.24786267 188.14253458 15.24792381 189.30914696 C15.24796417 190.07023185 15.24800452 190.83131674 15.2480461 191.61546481 C15.24873768 205.74314395 15.24283679 219.8708138 15.23389288 233.99848992 C15.23088944 238.97590831 15.22981487 243.95332498 15.22936058 248.93074417 C15.22860329 255.640016 15.22221701 262.34926169 15.21219444 269.05852699 C15.20928625 271.5138402 15.20804065 273.96915605 15.20862198 276.4244709 C15.21599101 326.51705591 15.21599101 326.51705591 0.0625 341.8125 C-9.90955217 349.62627234 -20.77817096 349.80946581 -32.9375 348.8125 C-46.93528335 346.28490026 -60.98875771 336.76124229 -70.9375 326.8125 C-71.04364389 325.16872349 -71.07961401 323.5203832 -71.08848095 321.87320709 C-71.10071801 320.25876701 -71.10071801 320.25876701 -71.11320227 318.61171198 C-71.11711063 317.41456993 -71.12101899 316.21742787 -71.12504578 314.98400879 C-71.13295586 313.72360322 -71.14086594 312.46319766 -71.14901572 311.16459799 C-71.17076756 307.6497587 -71.18603913 304.13491617 -71.20015609 300.62003899 C-71.21303449 297.60909593 -71.22959424 294.59817751 -71.24613335 291.58725268 C-71.40232664 263.03838463 -71.47717231 234.48894683 -71.53775311 205.93973541 C-71.54578211 202.22154204 -71.55395037 198.50334901 -71.56225586 194.78515625 C-71.56431346 193.86099197 -71.56637106 192.93682768 -71.56849102 191.98465842 C-71.60289582 177.02057461 -71.67553231 162.05691972 -71.76316347 147.09306318 C-71.85235909 131.73499997 -71.90368418 116.37715907 -71.91905528 101.01884222 C-71.92871213 92.39363166 -71.95546703 83.7691929 -72.02536583 75.14424133 C-72.08488751 67.79656921 -72.1105571 60.44977133 -72.09202697 53.10186392 C-72.08364144 49.35326862 -72.09138681 45.60655868 -72.143013 41.85826874 C-72.19860965 37.78986653 -72.17634056 33.72553398 -72.14677429 29.65686035 C-72.17522059 28.47756407 -72.20366688 27.29826779 -72.23297518 26.08323526 C-72.14052932 21.14210555 -71.92603379 18.03751002 -68.76032031 14.11449718 C-66.24827038 11.81873341 -63.71119832 9.78067178 -60.9375 7.8125 C-60.2565808 7.31394076 -59.57566161 6.81538152 -58.87410849 6.30171442 C-57.22831537 5.13075517 -55.55487913 4.08352924 -53.8125 3.0625 C-53.1848877 2.69326416 -52.55727539 2.32402832 -51.91064453 1.94360352 C-35.82156823 -7.12018817 -16.45732935 -10.41694693 0 0 Z " fill="#CD201F" transform="translate(1975.9375,438.1875)"/>
<path d="M0 0 C9.18025757 6.64980196 14.01492961 15.59024791 16.09498596 26.64160156 C17.60647785 36.28083523 17.82482149 45.63229114 17.7578125 55.3671875 C17.75486169 56.82234544 17.75282767 58.27750552 17.75170898 59.73266602 C17.74134191 65.05097697 17.71342034 70.3692421 17.6875 75.6875 C17.64625 87.60875 17.605 99.53 17.5625 111.8125 C-10.8175 111.8125 -39.1975 111.8125 -68.4375 111.8125 C-68.47875 99.685 -68.52 87.5575 -68.5625 75.0625 C-68.58070801 71.2562207 -68.59891602 67.44994141 -68.61767578 63.52832031 C-68.62670898 58.82177734 -68.62670898 58.82177734 -68.62838745 56.6071167 C-68.63142597 55.08513209 -68.6383909 53.56315179 -68.64865112 52.04119873 C-68.75647007 35.18109271 -67.84469587 16.67808981 -55.4375 3.8125 C-42.31301676 -8.5038254 -15.05336503 -8.56883856 0 0 Z " fill="#CD201F" transform="translate(2314.4375,437.1875)"/>
</svg>
